<mxfile host="app.diagrams.net" modified="2022-11-08T00:46:26.567Z" agent="5.0 (Macintosh; Intel Mac OS X 10_15_7) AppleWebKit/537.36 (KHTML, like Gecko) Chrome/105.0.0.0 Safari/537.36" etag="LPJvhZw9LfDX1s81LuE2" version="20.4.1" type="github" pages="2">
  <diagram id="C5RBs43oDa-KdzZeNtuy" name="Arvore de dependencias entre módulos">
    <mxGraphModel dx="2172" dy="1323" grid="0" gridSize="10" guides="1" tooltips="1" connect="0" arrows="1" fold="1" page="0" pageScale="1" pageWidth="827" pageHeight="1169" math="0" shadow="0">
      <root>
        <mxCell id="WIyWlLk6GJQsqaUBKTNV-0" />
        <mxCell id="WIyWlLk6GJQsqaUBKTNV-1" parent="WIyWlLk6GJQsqaUBKTNV-0" />
        <mxCell id="7aYJb-lIR06wyNtddDva-2" value="Árvore de dependências de um aplicativo modularizado" style="swimlane;startSize=20;horizontal=1;childLayout=treeLayout;horizontalTree=0;resizable=0;containerType=tree;strokeWidth=1;rounded=0;fillColor=#b0e3e6;strokeColor=#0e8088;" vertex="1" parent="WIyWlLk6GJQsqaUBKTNV-1">
          <mxGeometry x="20" y="50" width="1410" height="463" as="geometry" />
        </mxCell>
        <mxCell id="7aYJb-lIR06wyNtddDva-3" value="Aplicação Principal" style="whiteSpace=wrap;html=1;rounded=0;fillColor=#b0e3e6;strokeColor=#0e8088;fontStyle=0;horizontal=1;verticalAlign=middle;" vertex="1" parent="7aYJb-lIR06wyNtddDva-2">
          <mxGeometry x="617.4375" y="40" width="100" height="40" as="geometry" />
        </mxCell>
        <mxCell id="7aYJb-lIR06wyNtddDva-20" value="Iniciar Aplicação" style="edgeStyle=orthogonalEdgeStyle;rounded=0;orthogonalLoop=1;jettySize=auto;html=1;" edge="1" source="7aYJb-lIR06wyNtddDva-3" target="7aYJb-lIR06wyNtddDva-21" parent="7aYJb-lIR06wyNtddDva-2">
          <mxGeometry relative="1" as="geometry" />
        </mxCell>
        <mxCell id="7aYJb-lIR06wyNtddDva-21" value="CompositionRoot" style="whiteSpace=wrap;html=1;rounded=0;fillColor=#b0e3e6;strokeColor=#0e8088;fontStyle=0;horizontal=1;verticalAlign=middle;" vertex="1" parent="7aYJb-lIR06wyNtddDva-2">
          <mxGeometry x="617.4375" y="130" width="100" height="40" as="geometry" />
        </mxCell>
        <mxCell id="7aYJb-lIR06wyNtddDva-24" value="Valida o estado" style="edgeStyle=orthogonalEdgeStyle;rounded=0;orthogonalLoop=1;jettySize=auto;html=1;" edge="1" target="7aYJb-lIR06wyNtddDva-25" source="7aYJb-lIR06wyNtddDva-21" parent="7aYJb-lIR06wyNtddDva-2">
          <mxGeometry relative="1" as="geometry">
            <mxPoint x="-3615.9625" y="160" as="sourcePoint" />
            <Array as="points">
              <mxPoint x="140" y="142" />
            </Array>
          </mxGeometry>
        </mxCell>
        <mxCell id="7aYJb-lIR06wyNtddDva-25" value="Módulo de gerenciamento de estados" style="whiteSpace=wrap;html=1;rounded=0;fillColor=#b1ddf0;strokeColor=#10739e;" vertex="1" parent="7aYJb-lIR06wyNtddDva-2">
          <mxGeometry x="90" y="221.49999999999997" width="100" height="40" as="geometry" />
        </mxCell>
        <mxCell id="7aYJb-lIR06wyNtddDva-33" value="" style="edgeStyle=orthogonalEdgeStyle;rounded=0;orthogonalLoop=1;jettySize=auto;html=1;" edge="1" target="7aYJb-lIR06wyNtddDva-34" source="7aYJb-lIR06wyNtddDva-25" parent="7aYJb-lIR06wyNtddDva-2">
          <mxGeometry relative="1" as="geometry">
            <mxPoint x="-3405.9625" y="250" as="sourcePoint" />
          </mxGeometry>
        </mxCell>
        <mxCell id="7aYJb-lIR06wyNtddDva-34" value="Não Autenticado" style="whiteSpace=wrap;html=1;rounded=0;" vertex="1" parent="7aYJb-lIR06wyNtddDva-2">
          <mxGeometry x="20" y="312.99999999999994" width="100" height="40" as="geometry" />
        </mxCell>
        <mxCell id="7aYJb-lIR06wyNtddDva-35" value="" style="edgeStyle=orthogonalEdgeStyle;rounded=0;orthogonalLoop=1;jettySize=auto;html=1;" edge="1" target="7aYJb-lIR06wyNtddDva-36" source="7aYJb-lIR06wyNtddDva-25" parent="7aYJb-lIR06wyNtddDva-2">
          <mxGeometry relative="1" as="geometry">
            <mxPoint x="-3405.9625" y="341.5" as="sourcePoint" />
          </mxGeometry>
        </mxCell>
        <mxCell id="7aYJb-lIR06wyNtddDva-57" style="edgeStyle=orthogonalEdgeStyle;rounded=0;orthogonalLoop=1;jettySize=auto;html=1;entryX=1;entryY=0.5;entryDx=0;entryDy=0;exitX=0.5;exitY=1;exitDx=0;exitDy=0;dashed=1;" edge="1" parent="7aYJb-lIR06wyNtddDva-2" source="7aYJb-lIR06wyNtddDva-36" target="7aYJb-lIR06wyNtddDva-56">
          <mxGeometry relative="1" as="geometry" />
        </mxCell>
        <mxCell id="7aYJb-lIR06wyNtddDva-36" value="Autenticado" style="whiteSpace=wrap;html=1;rounded=0;" vertex="1" parent="7aYJb-lIR06wyNtddDva-2">
          <mxGeometry x="160" y="312.99999999999994" width="100" height="40" as="geometry" />
        </mxCell>
        <mxCell id="7aYJb-lIR06wyNtddDva-55" value="" style="edgeStyle=orthogonalEdgeStyle;rounded=0;orthogonalLoop=1;jettySize=auto;html=1;dashed=1;" edge="1" target="7aYJb-lIR06wyNtddDva-56" source="7aYJb-lIR06wyNtddDva-34" parent="7aYJb-lIR06wyNtddDva-2">
          <mxGeometry relative="1" as="geometry">
            <mxPoint x="-3027.9625" y="341.5" as="sourcePoint" />
          </mxGeometry>
        </mxCell>
        <mxCell id="7aYJb-lIR06wyNtddDva-56" value="Navegação" style="whiteSpace=wrap;html=1;rounded=0;" vertex="1" parent="7aYJb-lIR06wyNtddDva-2">
          <mxGeometry x="20" y="402.99999999999994" width="100" height="40" as="geometry" />
        </mxCell>
        <mxCell id="7aYJb-lIR06wyNtddDva-59" value="Gerencia Navegação" style="edgeStyle=orthogonalEdgeStyle;rounded=0;orthogonalLoop=1;jettySize=auto;html=1;" edge="1" target="7aYJb-lIR06wyNtddDva-60" source="7aYJb-lIR06wyNtddDva-21" parent="7aYJb-lIR06wyNtddDva-2">
          <mxGeometry x="-0.0176" y="10" relative="1" as="geometry">
            <mxPoint x="-3027.9625" y="160" as="sourcePoint" />
            <Array as="points">
              <mxPoint x="770" y="150" />
            </Array>
            <mxPoint as="offset" />
          </mxGeometry>
        </mxCell>
        <mxCell id="7aYJb-lIR06wyNtddDva-60" value="Módulo de navegação" style="whiteSpace=wrap;html=1;rounded=0;fillColor=#b1ddf0;strokeColor=#10739e;" vertex="1" parent="7aYJb-lIR06wyNtddDva-2">
          <mxGeometry x="720" y="220" width="100" height="40" as="geometry" />
        </mxCell>
        <mxCell id="7aYJb-lIR06wyNtddDva-61" value="" style="edgeStyle=orthogonalEdgeStyle;rounded=0;orthogonalLoop=1;jettySize=auto;html=1;" edge="1" target="7aYJb-lIR06wyNtddDva-62" source="7aYJb-lIR06wyNtddDva-60" parent="7aYJb-lIR06wyNtddDva-2">
          <mxGeometry relative="1" as="geometry">
            <mxPoint x="-2862.0625" y="250" as="sourcePoint" />
          </mxGeometry>
        </mxCell>
        <mxCell id="7aYJb-lIR06wyNtddDva-62" value="Navegar para fluxo não Autenticado" style="whiteSpace=wrap;html=1;rounded=0;" vertex="1" parent="7aYJb-lIR06wyNtddDva-2">
          <mxGeometry x="580" y="311.49999999999994" width="100" height="40" as="geometry" />
        </mxCell>
        <mxCell id="7aYJb-lIR06wyNtddDva-65" value="" style="edgeStyle=orthogonalEdgeStyle;rounded=0;orthogonalLoop=1;jettySize=auto;html=1;" edge="1" target="7aYJb-lIR06wyNtddDva-66" source="7aYJb-lIR06wyNtddDva-60" parent="7aYJb-lIR06wyNtddDva-2">
          <mxGeometry relative="1" as="geometry">
            <mxPoint x="-2757.0625" y="340" as="sourcePoint" />
          </mxGeometry>
        </mxCell>
        <mxCell id="7aYJb-lIR06wyNtddDva-66" value="Navegar para fluxo &lt;br&gt;Autenticado" style="whiteSpace=wrap;html=1;rounded=0;" vertex="1" parent="7aYJb-lIR06wyNtddDva-2">
          <mxGeometry x="720" y="311.49999999999994" width="100" height="40" as="geometry" />
        </mxCell>
        <mxCell id="7aYJb-lIR06wyNtddDva-67" value="" style="edgeStyle=orthogonalEdgeStyle;rounded=0;orthogonalLoop=1;jettySize=auto;html=1;" edge="1" target="7aYJb-lIR06wyNtddDva-68" source="7aYJb-lIR06wyNtddDva-60" parent="7aYJb-lIR06wyNtddDva-2">
          <mxGeometry x="-0.125" relative="1" as="geometry">
            <mxPoint x="-2512.0625" y="340" as="sourcePoint" />
            <mxPoint as="offset" />
          </mxGeometry>
        </mxCell>
        <mxCell id="7aYJb-lIR06wyNtddDva-68" value="Navegar para fluxo &lt;br&gt;Autenticado" style="whiteSpace=wrap;html=1;rounded=0;" vertex="1" parent="7aYJb-lIR06wyNtddDva-2">
          <mxGeometry x="860" y="311.49999999999994" width="100" height="40" as="geometry" />
        </mxCell>
        <mxCell id="7aYJb-lIR06wyNtddDva-69" value="Estabelece Conexão" style="edgeStyle=orthogonalEdgeStyle;rounded=0;orthogonalLoop=1;jettySize=auto;html=1;strokeColor=default;" edge="1" target="7aYJb-lIR06wyNtddDva-70" source="7aYJb-lIR06wyNtddDva-21" parent="7aYJb-lIR06wyNtddDva-2">
          <mxGeometry x="0.003" y="10" relative="1" as="geometry">
            <mxPoint x="-2397.0625" y="150" as="sourcePoint" />
            <Array as="points">
              <mxPoint x="420" y="150" />
            </Array>
            <mxPoint as="offset" />
          </mxGeometry>
        </mxCell>
        <mxCell id="7aYJb-lIR06wyNtddDva-70" value="Módulo de Conexão" style="whiteSpace=wrap;html=1;rounded=0;fillColor=#b1ddf0;strokeColor=#10739e;" vertex="1" parent="7aYJb-lIR06wyNtddDva-2">
          <mxGeometry x="370" y="220" width="100" height="40" as="geometry" />
        </mxCell>
        <mxCell id="7aYJb-lIR06wyNtddDva-71" value="" style="edgeStyle=orthogonalEdgeStyle;rounded=0;orthogonalLoop=1;jettySize=auto;html=1;" edge="1" target="7aYJb-lIR06wyNtddDva-72" source="7aYJb-lIR06wyNtddDva-70" parent="7aYJb-lIR06wyNtddDva-2">
          <mxGeometry relative="1" as="geometry">
            <mxPoint x="-1976.0625" y="220" as="sourcePoint" />
          </mxGeometry>
        </mxCell>
        <mxCell id="7aYJb-lIR06wyNtddDva-72" value="Módulo de Conexão Remota" style="whiteSpace=wrap;html=1;rounded=0;" vertex="1" parent="7aYJb-lIR06wyNtddDva-2">
          <mxGeometry x="440" y="310" width="100" height="40" as="geometry" />
        </mxCell>
        <mxCell id="7aYJb-lIR06wyNtddDva-73" value="" style="edgeStyle=orthogonalEdgeStyle;rounded=0;orthogonalLoop=1;jettySize=auto;html=1;" edge="1" target="7aYJb-lIR06wyNtddDva-74" source="7aYJb-lIR06wyNtddDva-70" parent="7aYJb-lIR06wyNtddDva-2">
          <mxGeometry relative="1" as="geometry">
            <mxPoint x="-1976.0625" y="220" as="sourcePoint" />
          </mxGeometry>
        </mxCell>
        <mxCell id="7aYJb-lIR06wyNtddDva-74" value="Módulo de Conexão Local" style="whiteSpace=wrap;html=1;rounded=0;" vertex="1" parent="7aYJb-lIR06wyNtddDva-2">
          <mxGeometry x="300" y="310" width="100" height="40" as="geometry" />
        </mxCell>
        <mxCell id="7aYJb-lIR06wyNtddDva-113" value="Módulo de UI" style="whiteSpace=wrap;html=1;rounded=0;fillColor=#b1ddf0;strokeColor=#10739e;" vertex="1" parent="7aYJb-lIR06wyNtddDva-2">
          <mxGeometry x="1144.875" y="220" width="100" height="40" as="geometry" />
        </mxCell>
        <mxCell id="7aYJb-lIR06wyNtddDva-112" value="Controla Interface Visual" style="edgeStyle=orthogonalEdgeStyle;rounded=0;orthogonalLoop=1;jettySize=auto;html=1;" edge="1" target="7aYJb-lIR06wyNtddDva-113" source="7aYJb-lIR06wyNtddDva-21" parent="7aYJb-lIR06wyNtddDva-2">
          <mxGeometry relative="1" as="geometry">
            <mxPoint x="127.5625" y="280" as="sourcePoint" />
            <Array as="points">
              <mxPoint x="1195" y="143" />
            </Array>
          </mxGeometry>
        </mxCell>
        <mxCell id="7aYJb-lIR06wyNtddDva-114" value="" style="edgeStyle=orthogonalEdgeStyle;rounded=0;orthogonalLoop=1;jettySize=auto;html=1;" edge="1" target="7aYJb-lIR06wyNtddDva-115" source="7aYJb-lIR06wyNtddDva-113" parent="7aYJb-lIR06wyNtddDva-2">
          <mxGeometry relative="1" as="geometry">
            <mxPoint x="-53.1875" y="220" as="sourcePoint" />
          </mxGeometry>
        </mxCell>
        <mxCell id="7aYJb-lIR06wyNtddDva-120" value="" style="edgeStyle=orthogonalEdgeStyle;rounded=0;orthogonalLoop=1;jettySize=auto;html=1;" edge="1" target="7aYJb-lIR06wyNtddDva-121" source="7aYJb-lIR06wyNtddDva-113" parent="7aYJb-lIR06wyNtddDva-2">
          <mxGeometry relative="1" as="geometry">
            <mxPoint x="507.5625" y="220" as="sourcePoint" />
            <Array as="points">
              <mxPoint x="1195" y="295" />
              <mxPoint x="1195" y="295" />
            </Array>
          </mxGeometry>
        </mxCell>
        <mxCell id="7aYJb-lIR06wyNtddDva-115" value="UIKit&lt;br&gt;DesignSystem" style="whiteSpace=wrap;html=1;rounded=0;" vertex="1" parent="7aYJb-lIR06wyNtddDva-2">
          <mxGeometry x="1289.75" y="310" width="100" height="40" as="geometry" />
        </mxCell>
        <mxCell id="7aYJb-lIR06wyNtddDva-117" value="SwiftUI&lt;br&gt;DesignSystem" style="whiteSpace=wrap;html=1;rounded=0;" vertex="1" parent="7aYJb-lIR06wyNtddDva-2">
          <mxGeometry x="1000" y="310" width="109.75" height="40" as="geometry" />
        </mxCell>
        <mxCell id="7aYJb-lIR06wyNtddDva-116" value="" style="edgeStyle=orthogonalEdgeStyle;rounded=0;orthogonalLoop=1;jettySize=auto;html=1;" edge="1" target="7aYJb-lIR06wyNtddDva-117" source="7aYJb-lIR06wyNtddDva-113" parent="7aYJb-lIR06wyNtddDva-2">
          <mxGeometry relative="1" as="geometry">
            <mxPoint x="-1123.1875" y="200" as="sourcePoint" />
          </mxGeometry>
        </mxCell>
        <mxCell id="7aYJb-lIR06wyNtddDva-121" value="MultiplatformUI&lt;br&gt;DesignSystem" style="whiteSpace=wrap;html=1;rounded=0;" vertex="1" parent="7aYJb-lIR06wyNtddDva-2">
          <mxGeometry x="1149.75" y="310" width="100" height="40" as="geometry" />
        </mxCell>
        <mxCell id="4rp3ItY7vsbw92JvsiXS-11" value="Módulo de Autenticação" style="swimlane;rounded=0;strokeColor=#b46504;fontFamily=Helvetica;fontSize=12;fillColor=#fad7ac;html=1;" vertex="1" parent="WIyWlLk6GJQsqaUBKTNV-1">
          <mxGeometry x="637.44" y="627" width="264" height="179" as="geometry" />
        </mxCell>
        <mxCell id="4rp3ItY7vsbw92JvsiXS-8" value="Abstração do módulo de Conexão" style="whiteSpace=wrap;html=1;rounded=1;fillColor=#fad9d5;strokeColor=#ae4132;dashed=1;" vertex="1" parent="4rp3ItY7vsbw92JvsiXS-11">
          <mxGeometry x="18" y="42" width="100" height="54" as="geometry" />
        </mxCell>
        <mxCell id="4rp3ItY7vsbw92JvsiXS-10" value="Abstração do módulo de Navegação" style="whiteSpace=wrap;html=1;rounded=1;fillColor=#fad9d5;strokeColor=#ae4132;dashed=1;" vertex="1" parent="4rp3ItY7vsbw92JvsiXS-11">
          <mxGeometry x="128" y="42" width="100" height="54" as="geometry" />
        </mxCell>
        <mxCell id="4rp3ItY7vsbw92JvsiXS-9" value="Abstração do módulo de Interface Visual" style="whiteSpace=wrap;html=1;rounded=1;fillColor=#fad9d5;strokeColor=#ae4132;dashed=1;" vertex="1" parent="4rp3ItY7vsbw92JvsiXS-11">
          <mxGeometry x="18" y="113" width="100" height="54" as="geometry" />
        </mxCell>
        <mxCell id="4rp3ItY7vsbw92JvsiXS-13" style="edgeStyle=orthogonalEdgeStyle;orthogonalLoop=1;jettySize=auto;html=1;fontFamily=Helvetica;fontSize=12;fontColor=default;" edge="1" parent="WIyWlLk6GJQsqaUBKTNV-1" source="7aYJb-lIR06wyNtddDva-21" target="4rp3ItY7vsbw92JvsiXS-11">
          <mxGeometry relative="1" as="geometry">
            <Array as="points">
              <mxPoint x="712" y="533" />
              <mxPoint x="776" y="533" />
            </Array>
          </mxGeometry>
        </mxCell>
        <mxCell id="4rp3ItY7vsbw92JvsiXS-14" value="Configura&amp;nbsp; &amp;nbsp; Funcionalidades&amp;nbsp;" style="edgeLabel;html=1;align=center;verticalAlign=middle;resizable=0;points=[];fontSize=12;fontFamily=Helvetica;fontColor=default;" vertex="1" connectable="0" parent="4rp3ItY7vsbw92JvsiXS-13">
          <mxGeometry x="-0.4924" relative="1" as="geometry">
            <mxPoint x="17" y="3" as="offset" />
          </mxGeometry>
        </mxCell>
        <mxCell id="4rp3ItY7vsbw92JvsiXS-19" style="edgeStyle=orthogonalEdgeStyle;orthogonalLoop=1;jettySize=auto;html=1;fontFamily=Helvetica;fontSize=12;fontColor=default;" edge="1" parent="WIyWlLk6GJQsqaUBKTNV-1" source="7aYJb-lIR06wyNtddDva-21" target="4rp3ItY7vsbw92JvsiXS-15">
          <mxGeometry relative="1" as="geometry">
            <Array as="points">
              <mxPoint x="712" y="533" />
              <mxPoint x="145" y="533" />
            </Array>
          </mxGeometry>
        </mxCell>
        <mxCell id="4rp3ItY7vsbw92JvsiXS-20" value="Módulo de Contratação" style="swimlane;rounded=0;strokeColor=#b46504;fontFamily=Helvetica;fontSize=12;fillColor=#fad7ac;html=1;" vertex="1" parent="WIyWlLk6GJQsqaUBKTNV-1">
          <mxGeometry x="1163" y="627" width="264" height="175" as="geometry" />
        </mxCell>
        <mxCell id="4rp3ItY7vsbw92JvsiXS-21" value="Abstração do módulo de Navegação" style="whiteSpace=wrap;html=1;rounded=1;fillColor=#fad9d5;strokeColor=#ae4132;dashed=1;" vertex="1" parent="4rp3ItY7vsbw92JvsiXS-20">
          <mxGeometry x="13" y="37" width="100" height="54" as="geometry" />
        </mxCell>
        <mxCell id="4rp3ItY7vsbw92JvsiXS-22" value="Abstração do módulo de Interface Visual" style="whiteSpace=wrap;html=1;rounded=1;fillColor=#fad9d5;strokeColor=#ae4132;dashed=1;" vertex="1" parent="4rp3ItY7vsbw92JvsiXS-20">
          <mxGeometry x="132" y="37" width="100" height="54" as="geometry" />
        </mxCell>
        <mxCell id="4rp3ItY7vsbw92JvsiXS-23" style="edgeStyle=orthogonalEdgeStyle;orthogonalLoop=1;jettySize=auto;html=1;fontFamily=Helvetica;fontSize=12;fontColor=default;" edge="1" parent="WIyWlLk6GJQsqaUBKTNV-1" source="7aYJb-lIR06wyNtddDva-21" target="4rp3ItY7vsbw92JvsiXS-20">
          <mxGeometry relative="1" as="geometry">
            <Array as="points">
              <mxPoint x="712" y="533" />
              <mxPoint x="1298" y="533" />
            </Array>
          </mxGeometry>
        </mxCell>
        <mxCell id="4rp3ItY7vsbw92JvsiXS-40" value="" style="group" vertex="1" connectable="0" parent="WIyWlLk6GJQsqaUBKTNV-1">
          <mxGeometry x="1449.9950000000001" y="145" width="131.00499999999988" height="261" as="geometry" />
        </mxCell>
        <mxCell id="4rp3ItY7vsbw92JvsiXS-2" value="Módulos Horizontais" style="whiteSpace=wrap;html=1;rounded=0;fillColor=#b1ddf0;strokeColor=#10739e;" vertex="1" parent="4rp3ItY7vsbw92JvsiXS-40">
          <mxGeometry width="100" height="40" as="geometry" />
        </mxCell>
        <mxCell id="4rp3ItY7vsbw92JvsiXS-30" value="Módulos Verticais" style="swimlane;rounded=0;strokeColor=#b46504;fontFamily=Helvetica;fontSize=12;fillColor=#fad7ac;html=1;" vertex="1" parent="4rp3ItY7vsbw92JvsiXS-40">
          <mxGeometry x="0.004999999999881766" y="151" width="131" height="110" as="geometry" />
        </mxCell>
        <mxCell id="4rp3ItY7vsbw92JvsiXS-33" value="" style="whiteSpace=wrap;html=1;rounded=1;fillColor=#fad9d5;strokeColor=#ae4132;dashed=1;" vertex="1" parent="4rp3ItY7vsbw92JvsiXS-30">
          <mxGeometry x="71" y="36" width="38" height="27" as="geometry" />
        </mxCell>
        <mxCell id="4rp3ItY7vsbw92JvsiXS-34" value="" style="whiteSpace=wrap;html=1;rounded=1;fillColor=#fad9d5;strokeColor=#ae4132;dashed=1;" vertex="1" parent="4rp3ItY7vsbw92JvsiXS-30">
          <mxGeometry x="12" y="36" width="35" height="27" as="geometry" />
        </mxCell>
        <mxCell id="4rp3ItY7vsbw92JvsiXS-35" value="Abstração de Módulos" style="whiteSpace=wrap;html=1;rounded=1;fillColor=#fad9d5;strokeColor=#ae4132;dashed=1;arcSize=50;" vertex="1" parent="4rp3ItY7vsbw92JvsiXS-40">
          <mxGeometry x="0.004999999999881766" y="64" width="97" height="62" as="geometry" />
        </mxCell>
        <mxCell id="4rp3ItY7vsbw92JvsiXS-15" value="Módulo de Boas Vindas" style="swimlane;rounded=0;strokeColor=#b46504;fontFamily=Helvetica;fontSize=12;fillColor=#fad7ac;html=1;" vertex="1" parent="WIyWlLk6GJQsqaUBKTNV-1">
          <mxGeometry x="27" y="637" width="264" height="172" as="geometry" />
        </mxCell>
        <mxCell id="4rp3ItY7vsbw92JvsiXS-17" value="Abstração do módulo de Navegação" style="whiteSpace=wrap;html=1;rounded=1;fillColor=#fad9d5;strokeColor=#ae4132;dashed=1;" vertex="1" parent="4rp3ItY7vsbw92JvsiXS-15">
          <mxGeometry x="13" y="37" width="100" height="54" as="geometry" />
        </mxCell>
        <mxCell id="4rp3ItY7vsbw92JvsiXS-18" value="Abstração do módulo de Interface Visual" style="whiteSpace=wrap;html=1;rounded=1;fillColor=#fad9d5;strokeColor=#ae4132;dashed=1;" vertex="1" parent="4rp3ItY7vsbw92JvsiXS-15">
          <mxGeometry x="132" y="37" width="100" height="54" as="geometry" />
        </mxCell>
      </root>
    </mxGraphModel>
  </diagram>
  <diagram id="guU1XKmuLipd7dK7uSpI" name="Página-2">
    <mxGraphModel dx="1372" dy="836" grid="0" gridSize="10" guides="1" tooltips="1" connect="1" arrows="1" fold="1" page="1" pageScale="1" pageWidth="827" pageHeight="1169" math="0" shadow="0">
      <root>
        <mxCell id="0" />
        <mxCell id="1" parent="0" />
        <mxCell id="fw91jjUeY6QGjUXj6UHb-1" value="Arquitetura de um módulo Cadastro (Sign Up) Utilizando VIP" style="swimlane;startSize=20;horizontal=1;childLayout=treeLayout;horizontalTree=0;resizable=0;containerType=tree;strokeWidth=2;swimlaneLine=1;rounded=0;" vertex="1" parent="1">
          <mxGeometry x="40" y="730" width="1220" height="398.42564102564097" as="geometry" />
        </mxCell>
        <mxCell id="fw91jjUeY6QGjUXj6UHb-2" value="" style="rounded=0;whiteSpace=wrap;html=1;fillStyle=solid;strokeColor=#d6b656;strokeWidth=1;fillColor=#fff2cc;" vertex="1" parent="fw91jjUeY6QGjUXj6UHb-1">
          <mxGeometry x="20" y="40" width="340" height="120" as="geometry" />
        </mxCell>
        <mxCell id="fw91jjUeY6QGjUXj6UHb-3" value="&lt;b&gt;Presenter&lt;/b&gt;" style="text;html=1;strokeColor=none;fillColor=none;align=center;verticalAlign=middle;whiteSpace=wrap;rounded=0;dashed=1;fillStyle=solid;strokeWidth=1;" vertex="1" parent="fw91jjUeY6QGjUXj6UHb-1">
          <mxGeometry x="270" y="30" width="60" height="30" as="geometry" />
        </mxCell>
        <mxCell id="fw91jjUeY6QGjUXj6UHb-4" value="" style="group;fillColor=none;rounded=0;" vertex="1" connectable="0" parent="fw91jjUeY6QGjUXj6UHb-1">
          <mxGeometry x="440" y="40" width="310" height="120" as="geometry" />
        </mxCell>
        <mxCell id="fw91jjUeY6QGjUXj6UHb-5" value="" style="group;fillColor=#FF9999;strokeColor=#CC0000;rounded=0;" vertex="1" connectable="0" parent="fw91jjUeY6QGjUXj6UHb-4">
          <mxGeometry width="310" height="31.578947368421055" as="geometry" />
        </mxCell>
        <mxCell id="fw91jjUeY6QGjUXj6UHb-6" value="&lt;b&gt;Domain&lt;/b&gt;" style="text;html=1;strokeColor=none;fillColor=none;align=center;verticalAlign=middle;whiteSpace=wrap;rounded=0;dashed=1;fillStyle=dots;strokeWidth=1;" vertex="1" parent="fw91jjUeY6QGjUXj6UHb-5">
          <mxGeometry x="84.19318181818184" y="8.418947368421053" width="155.00000000000003" height="10.526315789473685" as="geometry" />
        </mxCell>
        <mxCell id="fw91jjUeY6QGjUXj6UHb-7" value="" style="rounded=0;whiteSpace=wrap;html=1;fillStyle=solid;strokeColor=#990000;strokeWidth=1;fillColor=#FF9999;" vertex="1" parent="fw91jjUeY6QGjUXj6UHb-4">
          <mxGeometry y="31.578947368421055" width="310" height="88.42105263157895" as="geometry" />
        </mxCell>
        <mxCell id="fw91jjUeY6QGjUXj6UHb-8" value="&lt;b&gt;AddAccount&lt;/b&gt;" style="rounded=0;whiteSpace=wrap;html=1;fillStyle=solid;strokeColor=#999900;strokeWidth=1;fillColor=none;dashed=1;" vertex="1" parent="fw91jjUeY6QGjUXj6UHb-4">
          <mxGeometry x="72.05578512396677" y="50.94897435897431" width="165.88842975206614" height="35.093333333333334" as="geometry" />
        </mxCell>
        <mxCell id="fw91jjUeY6QGjUXj6UHb-9" style="edgeStyle=orthogonalEdgeStyle;rounded=0;orthogonalLoop=1;jettySize=auto;html=1;strokeColor=#999900;strokeWidth=2;fillColor=#fff2cc;" edge="1" parent="fw91jjUeY6QGjUXj6UHb-1" source="fw91jjUeY6QGjUXj6UHb-10" target="fw91jjUeY6QGjUXj6UHb-8">
          <mxGeometry relative="1" as="geometry">
            <Array as="points">
              <mxPoint x="340" y="110" />
              <mxPoint x="340" y="110" />
            </Array>
          </mxGeometry>
        </mxCell>
        <mxCell id="fw91jjUeY6QGjUXj6UHb-10" value="&lt;b&gt;SignupViewPresenter&lt;/b&gt;" style="rounded=0;whiteSpace=wrap;html=1;fillStyle=solid;strokeColor=#999900;strokeWidth=1;fillColor=none;" vertex="1" parent="fw91jjUeY6QGjUXj6UHb-1">
          <mxGeometry x="100" y="86.61" width="138.86" height="46.79" as="geometry" />
        </mxCell>
        <mxCell id="fw91jjUeY6QGjUXj6UHb-11" value="" style="group;rounded=0;" vertex="1" connectable="0" parent="fw91jjUeY6QGjUXj6UHb-1">
          <mxGeometry x="20" y="190" width="340" height="110" as="geometry" />
        </mxCell>
        <mxCell id="fw91jjUeY6QGjUXj6UHb-12" value="" style="rounded=0;whiteSpace=wrap;html=1;fillStyle=solid;strokeColor=#d79b00;strokeWidth=1;fillColor=#ffe6cc;" vertex="1" parent="fw91jjUeY6QGjUXj6UHb-11">
          <mxGeometry width="340" height="110" as="geometry" />
        </mxCell>
        <mxCell id="fw91jjUeY6QGjUXj6UHb-13" value="&lt;b&gt;UI&lt;/b&gt;" style="text;html=1;strokeColor=none;fillColor=none;align=center;verticalAlign=middle;whiteSpace=wrap;rounded=0;dashed=1;fillStyle=solid;strokeWidth=1;" vertex="1" parent="fw91jjUeY6QGjUXj6UHb-11">
          <mxGeometry x="250" width="60" height="22.75862068965517" as="geometry" />
        </mxCell>
        <mxCell id="fw91jjUeY6QGjUXj6UHb-14" value="&lt;b&gt;SignupView&lt;/b&gt;" style="rounded=0;whiteSpace=wrap;html=1;fillStyle=solid;strokeColor=#999900;strokeWidth=1;fillColor=none;" vertex="1" parent="fw91jjUeY6QGjUXj6UHb-11">
          <mxGeometry x="80" y="38.533682758620685" width="138.86" height="32.92413793103448" as="geometry" />
        </mxCell>
        <mxCell id="fw91jjUeY6QGjUXj6UHb-15" style="edgeStyle=orthogonalEdgeStyle;rounded=0;orthogonalLoop=1;jettySize=auto;html=1;strokeColor=#999900;strokeWidth=2;" edge="1" parent="fw91jjUeY6QGjUXj6UHb-1" source="fw91jjUeY6QGjUXj6UHb-14" target="fw91jjUeY6QGjUXj6UHb-10">
          <mxGeometry relative="1" as="geometry">
            <Array as="points">
              <mxPoint x="180" y="160" />
              <mxPoint x="180" y="160" />
            </Array>
          </mxGeometry>
        </mxCell>
        <mxCell id="fw91jjUeY6QGjUXj6UHb-16" value="" style="group;fillColor=none;strokeColor=#6c8ebf;rounded=0;" vertex="1" connectable="0" parent="fw91jjUeY6QGjUXj6UHb-1">
          <mxGeometry x="861" y="190" width="360" height="120" as="geometry" />
        </mxCell>
        <mxCell id="fw91jjUeY6QGjUXj6UHb-17" value="" style="group;fillColor=#dae8fc;strokeColor=#6c8ebf;rounded=0;" vertex="1" connectable="0" parent="fw91jjUeY6QGjUXj6UHb-16">
          <mxGeometry width="360" height="31.578947368421055" as="geometry" />
        </mxCell>
        <mxCell id="fw91jjUeY6QGjUXj6UHb-18" value="&lt;b&gt;Infrastructure&lt;/b&gt;" style="text;html=1;strokeColor=#6c8ebf;fillColor=#dae8fc;align=center;verticalAlign=middle;whiteSpace=wrap;rounded=0;fillStyle=auto;strokeWidth=1;" vertex="1" parent="fw91jjUeY6QGjUXj6UHb-17">
          <mxGeometry x="97.77272727272731" y="8.418947368421053" width="180.00000000000006" height="10.526315789473685" as="geometry" />
        </mxCell>
        <mxCell id="fw91jjUeY6QGjUXj6UHb-19" value="" style="rounded=0;whiteSpace=wrap;html=1;fillStyle=solid;strokeColor=#6c8ebf;strokeWidth=1;fillColor=#dae8fc;" vertex="1" parent="fw91jjUeY6QGjUXj6UHb-16">
          <mxGeometry y="31.578947368421055" width="360" height="88.42105263157895" as="geometry" />
        </mxCell>
        <mxCell id="fw91jjUeY6QGjUXj6UHb-20" value="&lt;b&gt;HttpPostClientAdapter&lt;/b&gt;" style="rounded=0;whiteSpace=wrap;html=1;fillStyle=solid;strokeColor=#004C99;strokeWidth=1;fillColor=none;" vertex="1" parent="fw91jjUeY6QGjUXj6UHb-16">
          <mxGeometry x="83.67768595041304" y="58.23897435897431" width="192.6446280991736" height="35.093333333333334" as="geometry" />
        </mxCell>
        <mxCell id="fw91jjUeY6QGjUXj6UHb-21" value="&lt;b&gt;UIDesignSystemModule&lt;/b&gt;" style="rounded=0;whiteSpace=wrap;html=1;fillStyle=solid;strokeColor=#999900;strokeWidth=1;fillColor=none;" vertex="1" parent="fw91jjUeY6QGjUXj6UHb-1">
          <mxGeometry x="100" y="349.99782068965516" width="138.86" height="32.92413793103448" as="geometry" />
        </mxCell>
        <mxCell id="fw91jjUeY6QGjUXj6UHb-22" value="" style="edgeStyle=orthogonalEdgeStyle;rounded=0;orthogonalLoop=1;jettySize=auto;html=1;strokeColor=#D6B656;strokeWidth=2;" edge="1" parent="fw91jjUeY6QGjUXj6UHb-1" source="fw91jjUeY6QGjUXj6UHb-14" target="fw91jjUeY6QGjUXj6UHb-21">
          <mxGeometry relative="1" as="geometry">
            <Array as="points">
              <mxPoint x="180" y="320" />
              <mxPoint x="180" y="320" />
            </Array>
          </mxGeometry>
        </mxCell>
        <mxCell id="fw91jjUeY6QGjUXj6UHb-23" value="&lt;b&gt;NetworkModule&lt;/b&gt;" style="rounded=0;whiteSpace=wrap;html=1;fillStyle=solid;strokeColor=#004C99;strokeWidth=1;fillColor=none;" vertex="1" parent="fw91jjUeY6QGjUXj6UHb-1">
          <mxGeometry x="944.677685950413" y="350.0023076923076" width="192.6446280991736" height="35.093333333333334" as="geometry" />
        </mxCell>
        <mxCell id="fw91jjUeY6QGjUXj6UHb-24" value="" style="edgeStyle=orthogonalEdgeStyle;rounded=0;orthogonalLoop=1;jettySize=auto;html=1;strokeColor=#000099;strokeWidth=2;" edge="1" parent="fw91jjUeY6QGjUXj6UHb-1" source="fw91jjUeY6QGjUXj6UHb-20" target="fw91jjUeY6QGjUXj6UHb-23">
          <mxGeometry relative="1" as="geometry" />
        </mxCell>
        <mxCell id="fw91jjUeY6QGjUXj6UHb-25" value="" style="group;rounded=0;" vertex="1" connectable="0" parent="fw91jjUeY6QGjUXj6UHb-1">
          <mxGeometry x="850" y="39.99999999999999" width="360" height="160" as="geometry" />
        </mxCell>
        <mxCell id="fw91jjUeY6QGjUXj6UHb-26" value="" style="group;fillColor=#d5e8d4;strokeColor=#82b366;rounded=0;" vertex="1" connectable="0" parent="fw91jjUeY6QGjUXj6UHb-25">
          <mxGeometry width="360.00000000000006" height="37.42690058479531" as="geometry" />
        </mxCell>
        <mxCell id="fw91jjUeY6QGjUXj6UHb-27" value="&lt;b&gt;Interactor&lt;/b&gt;" style="text;html=1;strokeColor=#82b366;fillColor=#d5e8d4;align=center;verticalAlign=middle;whiteSpace=wrap;rounded=0;fillStyle=auto;strokeWidth=1;" vertex="1" parent="fw91jjUeY6QGjUXj6UHb-26">
          <mxGeometry x="97.77272727272732" y="9.97801169590643" width="180.00000000000006" height="12.475633528265107" as="geometry" />
        </mxCell>
        <mxCell id="fw91jjUeY6QGjUXj6UHb-28" value="" style="rounded=0;whiteSpace=wrap;html=1;fillStyle=solid;strokeColor=#82b366;strokeWidth=1;fillColor=#d5e8d4;" vertex="1" parent="fw91jjUeY6QGjUXj6UHb-25">
          <mxGeometry y="37.43" width="360" height="82.57" as="geometry" />
        </mxCell>
        <mxCell id="fw91jjUeY6QGjUXj6UHb-29" value="RemoteAddAccount" style="rounded=0;whiteSpace=wrap;html=1;fillStyle=solid;strokeColor=#82b366;strokeWidth=1;fillColor=#d5e8d4;" vertex="1" parent="fw91jjUeY6QGjUXj6UHb-25">
          <mxGeometry x="32.727272727272734" y="60.80888888888886" width="114.54545454545456" height="46.79111111111111" as="geometry" />
        </mxCell>
        <mxCell id="fw91jjUeY6QGjUXj6UHb-30" value="HttpPostClient" style="rounded=0;whiteSpace=wrap;html=1;fillStyle=solid;strokeColor=#82b366;strokeWidth=1;fillColor=#d5e8d4;dashed=1;" vertex="1" parent="fw91jjUeY6QGjUXj6UHb-25">
          <mxGeometry x="188.1818181818182" y="60.80888888888886" width="122.72727272727273" height="45.85777777777778" as="geometry" />
        </mxCell>
        <mxCell id="fw91jjUeY6QGjUXj6UHb-31" value="" style="edgeStyle=orthogonalEdgeStyle;rounded=0;orthogonalLoop=1;jettySize=auto;html=1;strokeColor=#006600;strokeWidth=2;" edge="1" parent="fw91jjUeY6QGjUXj6UHb-25" source="fw91jjUeY6QGjUXj6UHb-29" target="fw91jjUeY6QGjUXj6UHb-30">
          <mxGeometry relative="1" as="geometry" />
        </mxCell>
        <mxCell id="fw91jjUeY6QGjUXj6UHb-32" style="edgeStyle=orthogonalEdgeStyle;rounded=0;orthogonalLoop=1;jettySize=auto;html=1;strokeColor=#006600;strokeWidth=2;" edge="1" parent="fw91jjUeY6QGjUXj6UHb-1" source="fw91jjUeY6QGjUXj6UHb-29" target="fw91jjUeY6QGjUXj6UHb-8">
          <mxGeometry relative="1" as="geometry">
            <mxPoint x="730" y="284.2499999999998" as="targetPoint" />
            <Array as="points">
              <mxPoint x="880" y="124" />
              <mxPoint x="880" y="124" />
            </Array>
          </mxGeometry>
        </mxCell>
        <mxCell id="fw91jjUeY6QGjUXj6UHb-33" style="edgeStyle=orthogonalEdgeStyle;rounded=0;orthogonalLoop=1;jettySize=auto;html=1;strokeColor=#004C99;strokeWidth=2;" edge="1" parent="fw91jjUeY6QGjUXj6UHb-1" source="fw91jjUeY6QGjUXj6UHb-20" target="fw91jjUeY6QGjUXj6UHb-30">
          <mxGeometry relative="1" as="geometry">
            <Array as="points">
              <mxPoint x="1180" y="266" />
              <mxPoint x="1180" y="124" />
            </Array>
          </mxGeometry>
        </mxCell>
      </root>
    </mxGraphModel>
  </diagram>
</mxfile>
